<?xml version="1.0" encoding="iso-8859-1"?><svg xmlns="http://www.w3.org/2000/svg" xmlns:xlink="http://www.w3.org/1999/xlink"><symbol viewBox="0 0 52.974 52.974" id="broken-link" xmlns="http://www.w3.org/2000/svg"><path d="M49.467 3.51c-4.677-4.679-12.291-4.681-16.97 0l-9.192 9.192a.999.999 0 101.414 1.414l9.192-9.192a9.927 9.927 0 017.07-2.915c2.681 0 5.191 1.036 7.071 2.916s2.916 4.391 2.916 7.071c0 2.68-1.036 5.19-2.916 7.07L36.033 31.088c-3.898 3.898-10.244 3.898-14.143 0a.999.999 0 10-1.414 1.414c2.34 2.339 5.412 3.509 8.485 3.509s6.146-1.17 8.485-3.509L49.467 20.48a11.914 11.914 0 003.502-8.485c0-3.214-1.244-6.227-3.502-8.485z"/><path d="M26.84 40.279l-7.778 7.778a9.928 9.928 0 01-7.071 2.916 9.93 9.93 0 01-7.071-2.916c-3.898-3.898-3.898-10.243 0-14.142l11.314-11.314c3.899-3.898 10.244-3.896 14.142 0a.999.999 0 101.414-1.414c-4.677-4.679-12.291-4.681-16.97 0L3.505 32.502a11.914 11.914 0 00-3.501 8.485c0 3.214 1.244 6.227 3.502 8.484s5.271 3.502 8.484 3.502c3.215 0 6.228-1.244 8.485-3.502l7.778-7.778a.999.999 0 10-1.413-1.414zM33.969 44.009a1 1 0 00-1 1v6a1 1 0 102 0v-6a1 1 0 00-1-1zM38.433 42.302a.999.999 0 10-1.414 1.414l4.243 4.242a.997.997 0 001.414 0 .999.999 0 000-1.414l-4.243-4.242zM44.969 38.009h-6a1 1 0 100 2h6a1 1 0 100-2zM15.969 11.009a1 1 0 001-1v-6a1 1 0 10-2 0v6a1 1 0 001 1zM11.504 12.716a.997.997 0 001.414 0 .999.999 0 000-1.414L8.676 7.06a.999.999 0 10-1.414 1.414l4.242 4.242zM4.969 17.009h6a1 1 0 100-2h-6a1 1 0 100 2z"/></symbol><symbol viewBox="0 0 512 512" id="home" xmlns="http://www.w3.org/2000/svg"><path d="M506.555 208.064L263.859 30.367a13.3 13.3 0 00-15.716 0L5.445 208.064c-5.928 4.341-7.216 12.665-2.875 18.593s12.666 7.214 18.593 2.875L256 57.588l234.837 171.943a13.236 13.236 0 007.848 2.57c4.096 0 8.138-1.885 10.744-5.445 4.342-5.927 3.054-14.251-2.874-18.592z"/><path d="M442.246 232.543c-7.346 0-13.303 5.956-13.303 13.303v211.749H322.521V342.009c0-36.68-29.842-66.52-66.52-66.52s-66.52 29.842-66.52 66.52v115.587H83.058V245.847c0-7.347-5.957-13.303-13.303-13.303s-13.303 5.956-13.303 13.303V470.9c0 7.347 5.957 13.303 13.303 13.303h133.029c6.996 0 12.721-5.405 13.251-12.267.032-.311.052-.651.052-1.036V342.01c0-22.009 17.905-39.914 39.914-39.914s39.914 17.906 39.914 39.914V470.9c0 .383.02.717.052 1.024.524 6.867 6.251 12.279 13.251 12.279h133.029c7.347 0 13.303-5.956 13.303-13.303V245.847c-.001-7.348-5.957-13.304-13.304-13.304z"/></symbol><symbol viewBox="0 0 463.001 463.001" id="loupe" xmlns="http://www.w3.org/2000/svg"><path d="M303.501 0c-87.948 0-159.5 71.551-159.5 159.5 0 36.188 12.122 69.593 32.507 96.386l-32.311 32.311a7.63 7.63 0 00-.569.643 39.816 39.816 0 00-8.127-.84c-10.55 0-20.47 4.109-27.933 11.572l-95.999 95.999C4.108 403.03 0 412.949 0 423.5s4.108 20.471 11.568 27.928C19.031 458.891 28.951 463 39.501 463s20.47-4.109 27.933-11.572l95.999-95.999c7.461-7.458 11.569-17.377 11.569-27.929 0-2.765-.289-5.484-.84-8.129.222-.176.437-.363.642-.568l32.31-32.31C233.908 306.879 267.313 319 303.501 319c87.948 0 159.5-71.551 159.5-159.5S391.449 0 303.501 0zM56.826 440.822C52.197 445.451 46.045 448 39.501 448s-12.696-2.549-17.326-7.179C17.548 436.196 15 430.045 15 423.5s2.548-12.696 7.176-17.322l86.698-86.698 34.647 34.647-86.695 86.695zm97.249-97.354l-34.528-34.528a24.425 24.425 0 0115.954-5.926c6.274 0 12.55 2.389 17.326 7.166 4.627 4.625 7.175 10.776 7.175 17.321a24.306 24.306 0 01-5.927 15.967zm13.655-38.803a39.845 39.845 0 00-4.296-5.092 40.06 40.06 0 00-5.098-4.299l27.841-27.841c3 3.259 6.134 6.393 9.393 9.393l-27.84 27.839zM303.501 304c-79.678 0-144.5-64.822-144.5-144.5S223.823 15 303.501 15s144.5 64.822 144.5 144.5S383.179 304 303.501 304z"/><path d="M303.501 32c-70.304 0-127.5 57.196-127.5 127.5S233.197 287 303.501 287s127.5-57.196 127.5-127.5S373.805 32 303.501 32zm0 240c-62.032 0-112.5-50.467-112.5-112.5S241.469 47 303.501 47s112.5 50.467 112.5 112.5S365.533 272 303.501 272z"/><path d="M355.58 79.438a7.499 7.499 0 00-10.378 2.188 7.5 7.5 0 002.188 10.378C370.314 106.944 384 132.176 384 159.5c0 18.667-6.534 36.86-18.399 51.226a7.5 7.5 0 1011.566 9.552C391.246 203.231 399 181.646 399 159.501c.001-32.414-16.231-62.343-43.42-80.063zM320.856 65.575A96.293 96.293 0 00303.501 64c-4.143 0-7.5 3.358-7.5 7.5s3.357 7.5 7.5 7.5c4.922 0 9.849.447 14.645 1.328a7.504 7.504 0 008.732-6.021 7.501 7.501 0 00-6.022-8.732z"/></symbol></svg>