<svg xmlns="http://www.w3.org/2000/svg" width="41.495" height="41.495" viewBox="0 0 41.495 41.495">
  <g id="team" transform="translate(0 0)">
    <path id="Tracé_91" data-name="Tracé 91" d="M144.366,13.144l-2.84-2.84-1.983,1.29a10.613,10.613,0,0,0-3.092-1.282L135.963,8h-4.016l-.489,2.312a10.613,10.613,0,0,0-3.092,1.282l-1.983-1.29-2.84,2.84,1.028,2.452.1,5.12h1.255a8.031,8.031,0,1,1,16.062,0h1.339l-.005-5.12Zm0,0" transform="translate(-113.208 -7.331)" fill="#fcd770"/>
    <path id="Tracé_92" data-name="Tracé 92" d="M128.184,80.543l.641,1.527.013,5.12h1.339a7.983,7.983,0,0,1,1.474-4.627A5.326,5.326,0,0,0,128.184,80.543Zm0,0" transform="translate(-117.461 -73.805)" fill="#ffc729"/>
    <path id="Tracé_93" data-name="Tracé 93" d="M329.511,80.6a5.352,5.352,0,0,0-3.488,1.974,7.992,7.992,0,0,1,1.5,4.668h1.339l-.005-5.12Zm0,0" transform="translate(-298.749 -73.859)" fill="#ffc729"/>
    <path id="Tracé_94" data-name="Tracé 94" d="M302.724,112.733v-3.264a2.678,2.678,0,0,0-2.028-2.6l-3.326-.831v-1.21a4.011,4.011,0,0,0,2.009-3.475v-1.17A4.128,4.128,0,0,0,295.486,96a4.016,4.016,0,0,0-4.139,4.014v1.339a4.01,4.01,0,0,0,2.008,3.474v1.211l-3.326.832a2.677,2.677,0,0,0-2.028,2.6v3.264Zm0,0" transform="translate(-263.907 -87.97)" fill="#ccd1d9"/>
    <path id="Tracé_95" data-name="Tracé 95" d="M293.354,223.373a4,4,0,0,0-1.44-3.069l-1.886.472a2.677,2.677,0,0,0-2.028,2.6v3.264h5.354Zm0,0" transform="translate(-263.907 -201.874)" fill="#aab2bd"/>
    <path id="Tracé_96" data-name="Tracé 96" d="M46.724,112.733v-3.264a2.678,2.678,0,0,0-2.028-2.6l-3.326-.831v-1.21a4.011,4.011,0,0,0,2.009-3.475v-1.17A4.128,4.128,0,0,0,39.486,96a4.016,4.016,0,0,0-4.139,4.014v1.339a4.01,4.01,0,0,0,2.008,3.474v1.211l-3.326.832a2.677,2.677,0,0,0-2.028,2.6v3.264Zm0,0" transform="translate(-29.323 -87.97)" fill="#ccd1d9"/>
    <path id="Tracé_97" data-name="Tracé 97" d="M149.354,223.366a2.677,2.677,0,0,0-2.028-2.6l-1.886-.472a4,4,0,0,0-1.44,3.069v3.264h5.354Zm0,0" transform="translate(-131.953 -201.867)" fill="#aab2bd"/>
    <path id="Tracé_98" data-name="Tracé 98" d="M174.724,112.733v-3.264a2.678,2.678,0,0,0-2.028-2.6l-3.326-.831v-1.21a4.011,4.011,0,0,0,2.009-3.475v-1.17A4.128,4.128,0,0,0,167.486,96a4.016,4.016,0,0,0-4.139,4.014v1.339a4.01,4.01,0,0,0,2.008,3.474v1.211l-3.326.832a2.677,2.677,0,0,0-2.028,2.6v3.264Zm0,0" transform="translate(-146.615 -87.97)" fill="#ccd1d9"/>
    <g id="Groupe_18" data-name="Groupe 18" transform="translate(2.677 18.257)">
      <path id="Tracé_99" data-name="Tracé 99" d="M302.724,226.516a2.677,2.677,0,0,0-2.028-2.6l-.738-.184-8.943,4.707h-.151L288,227.623v2.156h14.724Zm0,0" transform="translate(-266.584 -223.274)" fill="#aab2bd"/>
      <path id="Tracé_100" data-name="Tracé 100" d="M174.724,250.151l-1,.526h-.151l-4.025-1.15a4.866,4.866,0,0,0-1.078-.17l-2.923-.935a8.9,8.9,0,0,0-4.65-.208l-.867.2a2.55,2.55,0,0,0-.029.337v3.264h14.724Zm0,0" transform="translate(-149.292 -245.51)" fill="#aab2bd"/>
      <path id="Tracé_101" data-name="Tracé 101" d="M43.6,220.943l-2.9.673v-.987l-4.1-2.39-2.575.644A2.678,2.678,0,0,0,32,221.48v3.264H46.724V221.48a2.663,2.663,0,0,0-.1-.679,8.616,8.616,0,0,0-3.022.142Zm0,0" transform="translate(-32 -218.239)" fill="#aab2bd"/>
    </g>
    <path id="Tracé_102" data-name="Tracé 102" d="M94.3,274.295l-5.655-5.09-1.076-3.866-3.064-.98a7.553,7.553,0,0,0-3.94-.179l-7.891,1.828L72,271.362l4.718,2.965,8.584,7.158,1.035.913a1.368,1.368,0,0,0,.9.342h.123a1.368,1.368,0,0,0,.875-2.418,1.768,1.768,0,0,0,1.132.41,1.368,1.368,0,0,0,.875-2.418l-2.565-2.137,2.676,2.23a1.37,1.37,0,0,0,.876.317h.145a1.368,1.368,0,0,0,.875-2.418l.106.088a1.388,1.388,0,0,0,.889.322h.116a1.389,1.389,0,0,0,.93-2.422Zm0,0" transform="translate(-65.977 -241.915)" fill="#ecc19c"/>
    <path id="Tracé_103" data-name="Tracé 103" d="M196.926,230.311l-5.655-5.09a2.026,2.026,0,0,0-2.4-.231l-2.491,1.5A1.572,1.572,0,0,1,184,225.136V225a1.572,1.572,0,0,1,.869-1.406l3.734-1.867a3.552,3.552,0,0,1,2.569-.239l4.206,1.2h.669L208.763,216h.669v8.7l-12.047,6.023Zm0,0" transform="translate(-168.607 -197.93)" fill="#f5e0cd"/>
    <path id="Tracé_104" data-name="Tracé 104" d="M237.809,400l-.93.968,3.709,3.091a2.709,2.709,0,0,0,1.087.539,1.35,1.35,0,0,0,.15-.61,1.368,1.368,0,0,0-.492-1.051Zm0,0" transform="translate(-217.062 -366.537)" fill="#dfb28b"/>
    <path id="Tracé_105" data-name="Tracé 105" d="M200,434.6a1.42,1.42,0,0,0,2.423,1l1.176-1.176a1.42,1.42,0,1,0-2.007-2.008l-1.176,1.176a1.419,1.419,0,0,0-.416,1Zm0,0" transform="translate(-183.269 -395.859)" fill="#f5e0cd"/>
    <path id="Tracé_106" data-name="Tracé 106" d="M176,410.6a1.42,1.42,0,0,0,2.423,1l1.176-1.176a1.42,1.42,0,1,0-2.007-2.008l-1.176,1.176A1.42,1.42,0,0,0,176,410.6Zm0,0" transform="translate(-161.276 -373.867)" fill="#f5e0cd"/>
    <path id="Tracé_107" data-name="Tracé 107" d="M152,386.6a1.42,1.42,0,0,0,2.423,1l1.176-1.176a1.42,1.42,0,1,0-2.007-2.008l-1.176,1.176A1.419,1.419,0,0,0,152,386.6Zm0,0" transform="translate(-139.284 -351.875)" fill="#f5e0cd"/>
    <path id="Tracé_108" data-name="Tracé 108" d="M154.539,385.362a2.763,2.763,0,0,0,.691-1.206A1.4,1.4,0,0,0,154.6,384a1.419,1.419,0,0,0-1,.416l-1.176,1.176a1.421,1.421,0,0,0-.416,1,1.4,1.4,0,0,0,.156.634,2.76,2.76,0,0,0,1.206-.691Zm0,0" transform="translate(-139.284 -351.875)" fill="#f0d0b4"/>
    <path id="Tracé_109" data-name="Tracé 109" d="M178.539,409.362a2.763,2.763,0,0,0,.691-1.206A1.4,1.4,0,0,0,178.6,408a1.419,1.419,0,0,0-1,.416l-1.176,1.176a1.421,1.421,0,0,0-.416,1,1.4,1.4,0,0,0,.156.634,2.76,2.76,0,0,0,1.206-.691Zm0,0" transform="translate(-161.277 -373.867)" fill="#f0d0b4"/>
    <path id="Tracé_110" data-name="Tracé 110" d="M202.539,433.362a2.764,2.764,0,0,0,.691-1.206A1.4,1.4,0,0,0,202.6,432a1.419,1.419,0,0,0-1,.416l-1.176,1.176a1.421,1.421,0,0,0-.416,1,1.4,1.4,0,0,0,.156.634,2.76,2.76,0,0,0,1.206-.692Zm0,0" transform="translate(-183.269 -395.859)" fill="#f0d0b4"/>
    <path id="Tracé_111" data-name="Tracé 111" d="M128,362.6a1.42,1.42,0,0,0,2.423,1l1.176-1.176a1.42,1.42,0,1,0-2.007-2.008l-1.176,1.176A1.419,1.419,0,0,0,128,362.6Zm0,0" transform="translate(-117.292 -329.883)" fill="#f5e0cd"/>
    <path id="Tracé_112" data-name="Tracé 112" d="M77.13,275.648l-4.46,1.033L72,282.035l2.8,1.76Zm0,0" transform="translate(-65.977 -252.588)" fill="#dfb28b"/>
    <path id="Tracé_113" data-name="Tracé 113" d="M17.37,205.354l-2.677,9.37h-.669L8,212.716V200H9.339l8.031,4.685Zm0,0" transform="translate(-7.331 -183.268)" fill="#e6e9ed"/>
    <path id="Tracé_114" data-name="Tracé 114" d="M14.737,203.149,9.339,200H8v12.716l4.016,1.339,2.677-10.708Zm0,0" transform="translate(-7.331 -183.269)" fill="#b4dd7f"/>
    <path id="Tracé_115" data-name="Tracé 115" d="M261.809,376l-.93.968,3.709,3.091a2.71,2.71,0,0,0,1.087.539,1.351,1.351,0,0,0,.15-.61,1.368,1.368,0,0,0-.492-1.051Zm0,0" transform="translate(-239.054 -344.545)" fill="#dfb28b"/>
    <path id="Tracé_116" data-name="Tracé 116" d="M41.494,17.4h-1.5L37.749,18.58a3.327,3.327,0,0,0-.8-.328l-2.82-.706v-.321a4.7,4.7,0,0,0,2.008-3.841v-1.17A4.808,4.808,0,0,0,31.6,7.364c-.127,0-.252,0-.378.008l.731-1.711L28.408,2.117l-2.089,1.36a11.321,11.321,0,0,0-2.505-1.039L23.3,0H18.2l-.516,2.438a11.307,11.307,0,0,0-2.505,1.039l-2.089-1.36L9.546,5.659l.719,1.713c-.027,0-.054-.006-.081-.007a4.687,4.687,0,0,0-4.829,4.682v1.339a4.7,4.7,0,0,0,2.008,3.84v.321l-1.839.46L2.189,16.062H0V29.93l6.584,2.194H7.866l.16-.561,2.018,1.211a2.084,2.084,0,0,0,2.009,2.019A2.084,2.084,0,0,0,14.062,36.8,2.084,2.084,0,0,0,16.07,38.81a2.081,2.081,0,0,0,3.255,1.653l.593.524a2.038,2.038,0,0,0,1.347.508h.124a2.038,2.038,0,0,0,2.034-2.01,2.036,2.036,0,0,0,2.008-2.008,2.036,2.036,0,0,0,2.008-2.01,2.058,2.058,0,0,0,2.01-2.054,1.961,1.961,0,0,0-.01-.2l12.057-6.028ZM34.8,12.215v1.17a3.359,3.359,0,0,1-1.675,2.9l-.335.193,0,2.118,3.344.835L28.778,23.3V21.5a3.33,3.33,0,0,0-.958-2.332l2.3-.574v-2.12l-.334-.193a3.356,3.356,0,0,1-1.674-2.895V12.047A3.346,3.346,0,0,1,31.559,8.7,3.46,3.46,0,0,1,34.8,12.215ZM21.756,22.776l-3.03-.968a8.265,8.265,0,0,0-4.288-.2l-.384.085v-.2a2.006,2.006,0,0,1,1.521-1.948l3.834-.958v-2.12l-.334-.193A3.356,3.356,0,0,1,17.4,13.385V12.047A3.346,3.346,0,0,1,20.851,8.7a3.46,3.46,0,0,1,3.243,3.513v1.17a3.359,3.359,0,0,1-1.675,2.9l-.335.193,0,2.118,3.833.958A2.006,2.006,0,0,1,27.44,21.5v2.508l-.165.087h-.41L22.75,22.918a4.219,4.219,0,0,0-.993-.142ZM14.2,10.017a7.357,7.357,0,0,1,13.058-.054,4.655,4.655,0,0,0-.492,2.084v1.339a4.7,4.7,0,0,0,2.008,3.84v.321l-2.677.67-2.678-.67v-.321a4.7,4.7,0,0,0,2.008-3.841v-1.17a4.808,4.808,0,0,0-4.541-4.852,4.686,4.686,0,0,0-4.829,4.683v1.339a4.7,4.7,0,0,0,2.008,3.84v.321l-2.677.67-2.678-.67v-.321a4.7,4.7,0,0,0,2.008-3.841v-1.17a4.933,4.933,0,0,0-.519-2.2ZM11.126,5.969l2.138-2.138,1.882,1.225.36-.221a9.987,9.987,0,0,1,2.9-1.2l.412-.1.466-2.2h2.931l.464,2.2.412.1a10,10,0,0,1,2.9,1.2l.36.221L28.229,3.83l2.136,2.136-.759,1.777a4.678,4.678,0,0,0-1.413.939c-.027.027-.051.056-.078.083a8.692,8.692,0,0,0-14.761.04A4.721,4.721,0,0,0,11.877,7.76ZM8.7,18.593v-2.12l-.334-.193a3.356,3.356,0,0,1-1.674-2.895V12.047A3.346,3.346,0,0,1,10.142,8.7a3.46,3.46,0,0,1,3.243,3.513v1.17a3.359,3.359,0,0,1-1.675,2.9l-.335.193,0,2.118,2.3.574a3.33,3.33,0,0,0-.958,2.332v.5l-2.088.464.054-.19.025-1.237-3.53-2.059ZM1.338,17.4h.488l4.813,2.807L4.211,29.923l-2.872-.958ZM6.8,30.786l-1.317-.439,2.359-9.437,1.526.89v.191L6.857,30.786Zm4.576,1.927a.755.755,0,0,1,.22-.531l1.176-1.176a.751.751,0,0,1,1.061,1.061l-1.176,1.176a.751.751,0,0,1-1.281-.531Zm2.008,2.008a.755.755,0,0,1,.22-.531l1.176-1.176a.751.751,0,0,1,1.061,1.061l-1.176,1.176a.751.751,0,0,1-1.281-.531Zm2.008,2.008a.755.755,0,0,1,.22-.531l1.176-1.176a.751.751,0,0,1,1.061,1.061l-1.176,1.176a.751.751,0,0,1-1.281-.531Zm2.758,2.758a.751.751,0,0,1-.531-1.281L18.8,37.029a.751.751,0,0,1,1.061,1.061l-1.176,1.176A.755.755,0,0,1,18.151,39.487Zm3.237.669h-.124a.694.694,0,0,1-.461-.175l-.5-.441.5-.5a2.081,2.081,0,0,0,.422-.622l.608.507a.7.7,0,0,1-.447,1.234Zm6-6.023h-.116a.718.718,0,0,1-.46-.167l-3.629-3.024-.857,1.029,3.524,2.937A.7.7,0,0,1,25.4,36.14h-.146a.7.7,0,0,1-.446-.162l-3.635-3.029-.857,1.029,3.524,2.937a.7.7,0,0,1-.447,1.233,1.105,1.105,0,0,1-.7-.255L21.2,36.648a2.082,2.082,0,0,0-1.8-1.17,2.084,2.084,0,0,0-2.008-2.008,2.084,2.084,0,0,0-2.008-2.008,2.084,2.084,0,0,0-3.558-1.4l-1.176,1.176a2.062,2.062,0,0,0-.188.229L8.407,30.231l1.8-6.308,4.518-1a6.9,6.9,0,0,1,3.591.162l.986.315-3.342,1.671a2.231,2.231,0,0,0-1.238,2.005v.132a2.241,2.241,0,0,0,3.4,1.922l2.492-1.494a1.382,1.382,0,0,1,1.6.155l5.655,5.089a.72.72,0,0,1-.481,1.256Zm12.766-7.776L28.881,32c-.037-.039-.075-.076-.115-.112l-5.654-5.089a2.693,2.693,0,0,0-3.19-.308l-2.493,1.5a.9.9,0,0,1-1.367-.775v-.132a.9.9,0,0,1,.5-.808L20.295,24.4a2.909,2.909,0,0,1,2.086-.193l4.206,1.2,1.019.025,12.551-6.606Zm0,0"/>
  </g>
</svg>
