<svg id="email" xmlns="http://www.w3.org/2000/svg" width="46.954" height="46.954" viewBox="0 0 46.954 46.954">
  <g id="Groupe_24" data-name="Groupe 24" transform="translate(0.78 0.779)">
    <path id="Tracé_145" data-name="Tracé 145" d="M52.9,192.756v26.609a1.57,1.57,0,0,1-1.565,1.565H9.072a1.57,1.57,0,0,1-1.565-1.565V192.756l.329-.25.2.25H52.374l.2-.25Z" transform="translate(-7.507 -175.539)" fill="#c52828"/>
    <path id="Tracé_146" data-name="Tracé 146" d="M50.55,192.756v26.609a1.57,1.57,0,0,1-1.565,1.565H9.072a1,1,0,0,1-.157-.008.461.461,0,0,1-.11-.016,1.565,1.565,0,0,1-.994-.618,1.522,1.522,0,0,1-.305-.923V192.756H50.026l.2-.25Z" transform="translate(-7.507 -175.539)" fill="#f44335"/>
    <path id="Tracé_147" data-name="Tracé 147" d="M55.826,24.471l-.2.25L34.242,41.156H32.676L11.288,24.721l-.2-.25,7.5-5.83L28.9,10.634l3.608-2.8a1.528,1.528,0,0,1,1.894,0l3.608,2.8L48.329,18.64Z" transform="translate(-10.763 -7.504)" fill="#ff5722"/>
    <path id="Tracé_148" data-name="Tracé 148" d="M122.58,43.2V61.335l-2.348,1.808-11.739,9.016h-1.565L92.841,61.335V43.2a1.57,1.57,0,0,1,1.565-1.565h26.609A1.57,1.57,0,0,1,122.58,43.2Z" transform="translate(-85.015 -38.507)" fill="#cfd8dc"/>
    <path id="Tracé_149" data-name="Tracé 149" d="M120.232,43.2V63.143l-11.739,9.016h-1.565L92.841,61.335V43.2a1.57,1.57,0,0,1,1.565-1.565h24.261A1.57,1.57,0,0,1,120.232,43.2Z" transform="translate(-85.015 -38.507)" fill="#f5f5f5"/>
    <path id="Tracé_150" data-name="Tracé 150" d="M463.382,479.706a1.549,1.549,0,0,1-1.26.642h-2.348a1.57,1.57,0,0,0,1.565-1.565v-.665Z" transform="translate(-418.295 -434.956)" fill="#d84315"/>
    <path id="Tracé_151" data-name="Tracé 151" d="M53.574,325.661v.665a1.57,1.57,0,0,1-1.565,1.565H12.1a1.006,1.006,0,0,1-.157-.008.46.46,0,0,1-.11-.016,1.565,1.565,0,0,1-.994-.618l17.93-13.923,3.514-2.731a1.528,1.528,0,0,1,1.894,0l3.514,2.731Z" transform="translate(-10.53 -282.5)" fill="#ff5722"/>
  </g>
  <g id="Groupe_25" data-name="Groupe 25" transform="translate(0 0)">
    <path id="Tracé_152" data-name="Tracé 152" d="M46.914,17.8a.783.783,0,0,0-.045-.135.7.7,0,0,0-.078-.12.738.738,0,0,0-.1-.121c-.013-.011-.018-.026-.031-.037l-7.526-5.845V5.48a2.348,2.348,0,0,0-2.348-2.348H28.3L24.9.5A2.321,2.321,0,0,0,22.05.5l-3.4,2.637H10.172A2.348,2.348,0,0,0,7.825,5.48v6.058L.3,17.383c-.013.011-.019.026-.031.037a.734.734,0,0,0-.1.121.7.7,0,0,0-.078.12.772.772,0,0,0-.045.135.742.742,0,0,0-.032.157C.01,17.969,0,17.983,0,18V44.61A2.322,2.322,0,0,0,.46,45.992c0,.007.006.016.011.022s.017.013.025.022a2.336,2.336,0,0,0,1.85.923H44.608a2.337,2.337,0,0,0,1.856-.927c.006-.008.016-.01.021-.018s.006-.015.011-.022a2.321,2.321,0,0,0,.459-1.381V18c0-.016-.009-.031-.009-.047A.74.74,0,0,0,46.914,17.8ZM23.007,1.73a.75.75,0,0,1,.934,0l1.805,1.4H21.207ZM8.607,20.349a.783.783,0,0,0,.783-.783V5.48a.783.783,0,0,1,.783-.783H36.781a.783.783,0,0,1,.783.783V19.567a.783.783,0,1,0,1.565,0V13.519L44.635,17.8,31.583,27.933a.783.783,0,1,0,.959,1.236L45.39,19.193V44.173L24.9,28.262a2.322,2.322,0,0,0-2.854,0L1.564,44.173V19.193l12.825,9.959a.783.783,0,0,0,.959-1.237L2.319,17.8l5.506-4.279v6.047A.783.783,0,0,0,8.607,20.349Zm35.8,25.044H2.544L23.007,29.5a.751.751,0,0,1,.934,0Z" transform="translate(-0.001 -0.005)"/>
    <path id="Tracé_153" data-name="Tracé 153" d="M162.965,87.022a.783.783,0,1,0,0-1.565,7.826,7.826,0,1,1,7.826-7.826v3.13a1.565,1.565,0,0,1-3.131,0V77.63a.783.783,0,1,0-1.565,0,3.13,3.13,0,1,1-3.13-3.13.783.783,0,0,0,0-1.565,4.7,4.7,0,1,0,3.164,8.156,3.122,3.122,0,0,0,6.227-.33V77.63a9.391,9.391,0,1,0-9.391,9.391Z" transform="translate(-139.489 -61.981)"/>
  </g>
</svg>
