<svg id="map" xmlns="http://www.w3.org/2000/svg" width="48.839" height="43.636" viewBox="0 0 48.839 43.636">
  <path id="Tracé_128" data-name="Tracé 128" d="M131.76,220.267l11.851,5.321V204.377L133.4,199.056Z" transform="translate(-119.192 -182.67)" fill="#44c868"/>
  <path id="Tracé_129" data-name="Tracé 129" d="M132.639,302.387l10.972,16.676-11.851-5.321Z" transform="translate(-119.192 -276.144)" fill="#7ee5f2"/>
  <path id="Tracé_130" data-name="Tracé 130" d="M19.366,220.267,7.515,225.589l3.837-21.157,9.657-5.376Z" transform="translate(-6.798 -182.67)" fill="#4ce166"/>
  <path id="Tracé_131" data-name="Tracé 131" d="M9.51,308.062l10.736-5.675-.879,11.355L7.515,319.063Z" transform="translate(-6.798 -276.144)" fill="#a8eefc"/>
  <path id="Tracé_132" data-name="Tracé 132" d="M364.67,220.267l11.851,5.321-3.837-21.157-9.657-5.376Z" transform="translate(-328.399 -182.67)" fill="#44c868"/>
  <path id="Tracé_133" data-name="Tracé 133" d="M368.127,248.593l11.826,13.737L377.3,247.688l-1.464-.815Z" transform="translate(-333.012 -225.926)" fill="#7ee5f2"/>
  <path id="Tracé_134" data-name="Tracé 134" d="M267.856,220.267l-11.851,5.321V204.377l10.209-5.321Z" transform="translate(-231.585 -182.67)" fill="#4ce166"/>
  <path id="Tracé_135" data-name="Tracé 135" d="M28.432,269.811l10.736-5.675.312-4.033-10.269,5.412Z" transform="translate(-25.72 -237.893)" fill="#ffdb56"/>
  <g id="Groupe_23" data-name="Groupe 23" transform="translate(13.448 18.373)">
    <path id="Tracé_136" data-name="Tracé 136" d="M151.955,261.628,141.292,260.1l-.312,4.033,10.972,16.676v-6.064L145.4,264.43l6.55.784Z" transform="translate(-140.98 -256.266)" fill="#ffbb24"/>
    <path id="Tracé_137" data-name="Tracé 137" d="M365.548,224.178l7.707-1.72-4.625-2.575-3.354.784Z" transform="translate(-343.881 -219.883)" fill="#ffbb24"/>
  </g>
  <path id="Tracé_138" data-name="Tracé 138" d="M267.117,236.645l-.416-5.37h0l-.246-3.17-10.42,4.578v3.586l6.807-2.962Z" transform="translate(-231.612 -208.948)" fill="#ffdb56"/>
  <path id="Tracé_139" data-name="Tracé 139" d="M368.517,269.936l12.618,15.222-1.181-6.514-11.826-13.737Z" transform="translate(-333.012 -242.24)" fill="#ffbb24"/>
  <path id="Tracé_140" data-name="Tracé 140" d="M168.19,34.787a9.311,9.311,0,0,0-9.311,9.311c0,7.83,9.311,15.035,9.311,15.035s9.311-7.2,9.311-15.035A9.311,9.311,0,0,0,168.19,34.787Zm0,13.024A3.714,3.714,0,1,1,171.9,44.1,3.714,3.714,0,0,1,168.19,47.811Z" transform="translate(-143.724 -34.07)" fill="#ff4a4a"/>
  <path id="Tracé_141" data-name="Tracé 141" d="M244.25,34.787a9.392,9.392,0,0,0-1.29.089,9.312,9.312,0,0,1,8.02,9.221c0,6-5.464,11.63-8.02,13.937.781.7,1.29,1.1,1.29,1.1s9.311-7.2,9.311-15.035A9.311,9.311,0,0,0,244.25,34.787Z" transform="translate(-219.785 -34.07)" fill="#e7343f"/>
  <path id="Tracé_142" data-name="Tracé 142" d="M256.005,413.642l4.084,4.23-4.084,1.834Z" transform="translate(-231.585 -376.787)" fill="#ffdb56"/>
  <path id="Tracé_143" data-name="Tracé 143" d="M48.688,70.63l.011-.013a.715.715,0,0,0,.057-.091c0-.009.008-.018.013-.027a.738.738,0,0,0,.03-.071c0-.012.008-.025.011-.037s.012-.045.016-.068,0-.026.006-.04a.728.728,0,0,0,.005-.074c0-.012,0-.023,0-.035a.709.709,0,0,0-.011-.11L45.967,54.286a.717.717,0,1,0-1.411.256l1.21,6.671L36.439,50.379l6.273-1.4.929.517.4,2.224a.717.717,0,1,0,1.411-.256l-.464-2.558a.717.717,0,0,0-.357-.5h0l-9.658-5.376h0a.711.711,0,0,0-.085-.04l-.028-.009c-.02-.007-.04-.014-.061-.019l-.035-.007-.056-.009-.038,0-.054,0-.039,0-.053.005-.039.007-.052.012-.038.012L34.351,43l-.038.017-.016.007-1.638.854A13.939,13.939,0,0,0,34.493,37.3a10.027,10.027,0,1,0-20.055,0,13.983,13.983,0,0,0,1.869,6.643l-1.765-.92-.017-.007L14.489,43l-.05-.019-.038-.011-.052-.012-.039-.007-.053-.005-.039,0-.053,0-.039,0-.053.009-.037.007c-.02,0-.039.012-.058.018l-.03.01a.723.723,0,0,0-.084.04h0L4.205,48.408a.716.716,0,0,0-.357.5h0l-2.72,15h0a.717.717,0,0,0,1.411.256l.816-4.5,9.278-4.9-.746,9.634L1.665,68.98,2.025,67A.717.717,0,1,0,.614,66.74l-.6,3.324a.717.717,0,0,0,1,.782l11.558-5.19,11.553,5.187h0l0,0,.02.008.032.012.032.011.021.006.027.007.045.009.021,0,.015,0a.706.706,0,0,0,.072,0h.014a.714.714,0,0,0,.087-.006h.011l.016,0a.68.68,0,0,0,.067-.015l.018,0h0l.006,0a.712.712,0,0,0,.082-.031l11.558-5.189h0l11.558,5.19.034.013.034.013.046.013.028.008.056.009.02,0a.708.708,0,0,0,.076,0h0a.725.725,0,0,0,.1-.009l.024,0a.7.7,0,0,0,.1-.026l.006,0a.667.667,0,0,0,.066-.026l.018-.01c.018-.009.035-.019.053-.03s.035-.021.051-.033l.018-.011c.013-.01.024-.021.035-.032l.028-.025A.7.7,0,0,0,48.688,70.63ZM28.67,67.5l-3.533-3.659V55.064l5.988-2.606,3.69,2.881.7,9.083Zm-3.533,1.586V65.9l2.143,2.22ZM22.325,51.431c.6.554,1.08.965,1.378,1.21v1.144L17.958,53.1a.717.717,0,0,0-.69,1.1L23.7,64.335V67.8L14.182,53.326l.117-1.506.118-1.52Zm5.414-1.1,6.467-2.841.458,5.911-2.994-2.337a.717.717,0,0,0-.727-.092L25.14,53.5v-.786A33.69,33.69,0,0,0,27.739,50.333Zm8.267,1.838L36,52.064,46.271,64l.659,3.632L36.2,54.686Zm-.561-7.237.782.435-.735.172ZM19.287,54.7l4.416.529v6.431ZM14,55.659l8.468,12.87-9.146-4.107Zm22.393,1.505L45.6,68.274,36.953,64.39Zm4.435-9.235-5.063,1.13-.161-2.073,2.485-.581,2.738,1.524ZM34,44.8l.092,1.182-4.04,1.775q.6-.746,1.122-1.484Zm-9.532-16.09A8.6,8.6,0,0,1,33.06,37.3c0,6.43-6.784,12.582-8.594,14.109-1.81-1.527-8.594-7.678-8.594-14.109A8.6,8.6,0,0,1,24.466,28.706Zm-5.2,19.508c.459.548.917,1.058,1.357,1.525l-6.091-.872.315-4.071,2.971,1.549Q18.474,47.272,19.261,48.214Zm-5.867-3.28-.206,2.66-.111,1.438L4.459,53.573,5.2,49.5ZM3.681,57.867l.442-2.439.011-.063,8.811-4.644-.182,2.344Z" transform="translate(0 -27.272)"/>
  <path id="Tracé_144" data-name="Tracé 144" d="M218.9,90.38a4.435,4.435,0,0,0-4.43-4.43.717.717,0,0,0,0,1.434,3,3,0,1,1-2.138.9.717.717,0,1,0-1.023-1,4.43,4.43,0,1,0,7.591,3.1Z" transform="translate(-190.007 -80.353)"/>
</svg>
