<svg id="smartphone" xmlns="http://www.w3.org/2000/svg" width="40.863" height="54.666" viewBox="0 0 40.863 54.666">
  <rect id="Rectangle_15" data-name="Rectangle 15" width="22.62" height="10.368" transform="translate(17.299 44.298)" fill="#c8d2d6"/>
  <path id="Tracé_117" data-name="Tracé 117" d="M40.757,57.368H25.677V47h8.884a6.2,6.2,0,0,1,6.2,6.2Z" transform="translate(-8.378 -2.702)" fill="#e7eced"/>
  <circle id="Ellipse_3" data-name="Ellipse 3" cx="2.356" cy="2.356" r="2.356" transform="translate(23.897 47.126)" fill="#7383bf"/>
  <path id="Tracé_118" data-name="Tracé 118" d="M33.316,10.317a3.3,3.3,0,1,0-4.341-4.341Z" transform="translate(-8.568 -0.23)" fill="#fbce9d"/>
  <path id="Tracé_119" data-name="Tracé 119" d="M38.316,15.317a3.3,3.3,0,1,0-4.341-4.341Z" transform="translate(-8.855 -0.517)" fill="#fbce9d"/>
  <path id="Tracé_120" data-name="Tracé 120" d="M43.316,20.317a3.3,3.3,0,1,0-4.341-4.341Z" transform="translate(-9.142 -0.805)" fill="#fbce9d"/>
  <path id="Tracé_121" data-name="Tracé 121" d="M48.316,25.317a3.3,3.3,0,1,0-4.341-4.341Z" transform="translate(-9.43 -1.092)" fill="#fbce9d"/>
  <path id="Tracé_122" data-name="Tracé 122" d="M27.4,32.6H17.976a3.309,3.309,0,0,1-3.3-3.3h0a3.309,3.309,0,0,1,3.3-3.3H27.4a3.309,3.309,0,0,1,3.3,3.3h0A3.309,3.309,0,0,1,27.4,32.6Z" transform="translate(-7.746 -1.494)" fill="#fbce9d"/>
  <g id="Groupe_19" data-name="Groupe 19" transform="translate(8.642 29.749)">
    <path id="Tracé_123" data-name="Tracé 123" d="M46.955,31.563,36.474,42.044a2.162,2.162,0,0,1-3.058,0l-9.125-9.126h-6.21c-.545.267-2.031-.7-1.461-.206L26.811,42.862c.07.07.151.12.224.183v3.068h18.85V41.862a7.045,7.045,0,0,0,1.07-10.3Z" transform="translate(-16.492 -31.563)" fill="#f7b563"/>
  </g>
  <path id="Tracé_124" data-name="Tracé 124" d="M24.875,2.889,10.212,17.552l7.156,7.156a3.365,3.365,0,0,1,.352-.036h9.425a3.3,3.3,0,0,1,0,6.6H23.929l5.99,5.99L44.581,22.6Z" transform="translate(-7.489 -0.166)" fill="#424a60"/>
  <g id="Groupe_20" data-name="Groupe 20" transform="translate(0 0)">
    <path id="Tracé_125" data-name="Tracé 125" d="M24.709,2.723,22.619.633a2.162,2.162,0,0,0-3.058,0L7.956,12.238a2.163,2.163,0,0,0,0,3.058l2.09,2.09Z" transform="translate(-7.323)" fill="#e7eced"/>
    <path id="Tracé_126" data-name="Tracé 126" d="M48.92,26.935,45.783,23.8,31.121,38.461,34.257,41.6a2.162,2.162,0,0,0,3.058,0l11.6-11.6A2.161,2.161,0,0,0,48.92,26.935Z" transform="translate(-8.691 -1.368)" fill="#e7eced"/>
  </g>
  <circle id="Ellipse_4" data-name="Ellipse 4" cx="1.885" cy="1.885" r="1.885" transform="translate(30.023 29.689)" fill="#fff"/>
  <path id="Tracé_127" data-name="Tracé 127" d="M15.62,10.77a.943.943,0,0,1-.666-1.609l1.885-1.885a.942.942,0,0,1,1.333,1.333l-1.885,1.885A.94.94,0,0,1,15.62,10.77Z" transform="translate(-7.746 -0.402)" fill="#424a60"/>
</svg>
