<?xml version="1.0" encoding="utf-8"?>
<!-- Generator: Adobe Illustrator 15.1.0, SVG Export Plug-In . SVG Version: 6.00 Build 0)  -->
<!DOCTYPE svg PUBLIC "-//W3C//DTD SVG 1.1//EN" "http://www.w3.org/Graphics/SVG/1.1/DTD/svg11.dtd">
<svg version="1.1" id="Calque_1" xmlns="http://www.w3.org/2000/svg" xmlns:xlink="http://www.w3.org/1999/xlink" x="0px" y="0px"
	 width="600px" height="600px" viewBox="0 0 600 600" enable-background="new 0 0 600 600" xml:space="preserve">
<g>
	<path fill-rule="evenodd" clip-rule="evenodd" fill="#FFFFFF" d="M330,367c-7.146,8.583-25.071,10.183-41,11
		c-23.388,1.2-52.527,0.038-63-12C249.387,353.501,308.143,352.069,330,367z"/>
	<path fill-rule="evenodd" clip-rule="evenodd" fill="#FFFFFF" d="M490,398c0.947,3.613-3.938,1.395-6,2
		c-0.881,6.785,0.722,16.055-4,19c-4.306-2.65,1.396-11.685,0-18c0.45-2.784-5.45,0.784-5-2
		C475.933,395.236,487.464,396.838,490,398z"/>
	<path fill-rule="evenodd" clip-rule="evenodd" fill="#FFFFFF" d="M494,397c1.333,0,2.667,0,4,0c0.636,4.364,1.665,8.335,3,12
		c4.299-3.035,3.307-11.359,10-12c-0.657,7.01,1.32,16.654-1,22c-4.388-1.279-0.869-10.464-2-15c-3.346,4.321-5.214,10.12-8,15
		c-1.737-3.596-2.923-7.743-3-13c-5.115,1.552-1.76,11.573-7,13C485.843,413.984,494.546,405.021,494,397z"/>
	<path fill-rule="evenodd" clip-rule="evenodd" fill="#FFFFFF" d="M45,169c170.332,0,340.671,0,511,0c0,87.001,0,173.999,0,261
		c-170.667,0-341.333,0-512,0c0-86,0-172,0-258C43.914,170.581,43.835,169.168,45,169z M283,333c-64.627,1.046-125.537,1.753-182,13
		c-16.195,3.227-45.456,8.649-45,21c0.417,11.311,30.199,17.011,46,20c20.157,3.813,40.384,6.38,58,8
		c101.877,9.37,219.139,10.142,312-8c14.689-2.87,45.553-8.496,45-21c-0.502-11.363-29.604-16.797-46-20
		c-59.498-11.624-115.574-11.987-185-13c36.064-41.937,71.567-84.432,109-125c37.646,2.361,93.779-9.233,99,23
		c5.422,33.477-34.349,48.543-70,44c3.876-19.791,9.22-38.113,13-58c-16,0-32,0-48,0c-6.425,29.242-13.501,57.832-20,87
		c71.039,4.763,132.938-2.546,162-37c9.688-11.485,18.146-34.326,10-52c-22.043-47.821-106.916-32.353-176-35
		c-21.726,25.274-42.151,51.849-63,78c-5.782-28.218-16.176-51.824-24-78c-60.001,0-120,0-180,0c-2.965,8.702-4.255,19.078-7,28
		c38.362,2.749,98.953-10.323,103,24c3.799,32.219-34.06,47.644-70,43c4.224-19.443,9.052-38.282,13-58c-16,0-32,0-48,0
		c-6.576,29.091-13.429,57.904-20,87c65.328,4.55,131.874-1.563,161-36c11.549-13.655,18.05-35.597,12-58
		C254.732,251.269,272.43,292.903,283,333z M475,399c-0.45,2.784,5.45-0.784,5,2c1.396,6.315-4.306,15.35,0,18
		c4.722-2.945,3.119-12.215,4-19c2.062-0.605,6.947,1.613,6-2C487.464,396.838,475.933,395.236,475,399z M490,419
		c5.24-1.427,1.885-11.448,7-13c0.077,5.257,1.263,9.404,3,13c2.786-4.88,4.654-10.679,8-15c1.131,4.536-2.388,13.721,2,15
		c2.32-5.346,0.343-14.99,1-22c-6.693,0.641-5.701,8.965-10,12c-1.335-3.665-2.364-7.636-3-12c-1.333,0-2.667,0-4,0
		C494.546,405.021,485.843,413.984,490,419z"/>
	<path fill-rule="evenodd" clip-rule="evenodd" fill="#FFFFFF" d="M242,210c6.05,22.403-0.451,44.345-12,58
		c-29.126,34.438-95.672,40.55-161,36c6.571-29.096,13.424-57.909,20-87c16,0,32,0,48,0c-3.948,19.718-8.776,38.557-13,58
		c35.94,4.644,73.799-10.781,70-43c-4.047-34.323-64.638-21.251-103-24c2.745-8.922,4.035-19.298,7-28c60,0,119.999,0,180,0
		c7.824,26.176,18.218,49.782,24,78c20.849-26.151,41.274-52.726,63-78c69.084,2.647,153.957-12.821,176,35
		c8.146,17.674-0.313,40.515-10,52c-29.063,34.454-90.961,41.763-162,37c6.499-29.168,13.575-57.758,20-87c16,0,32,0,48,0
		c-3.78,19.887-9.124,38.209-13,58c35.651,4.543,75.422-10.523,70-44c-5.221-32.233-61.354-20.639-99-23
		c-37.433,40.568-72.936,83.063-109,125c69.426,1.013,125.502,1.376,185,13c16.396,3.203,45.498,8.637,46,20
		c0.553,12.504-30.311,18.13-45,21c-92.861,18.142-210.123,17.37-312,8c-17.616-1.62-37.843-4.187-58-8
		c-15.801-2.989-45.583-8.689-46-20c-0.456-12.351,28.805-17.773,45-21c56.463-11.247,117.373-11.954,182-13
		C272.43,292.903,254.732,251.269,242,210z M226,366c10.473,12.038,39.612,13.2,63,12c15.929-0.817,33.854-2.417,41-11
		C308.143,352.069,249.387,353.501,226,366z"/>
</g>
</svg>
