<?xml version="1.0" encoding="utf-8"?><svg xmlns="http://www.w3.org/2000/svg" xmlns:xlink="http://www.w3.org/1999/xlink"><symbol viewBox="0 0 46.5 46.5" id="competences" xmlns="http://www.w3.org/2000/svg"><path data-name="Tracé 81" d="M38.327 16.438v9.536l-15.076 6.812-14.986-6.812v-9.536zm0 0" fill="#5a5a5a"/><path data-name="Tracé 82" d="M38.326 16.438v9.536L23.25 32.786V16.438zm0 0" fill="#444"/><path data-name="Tracé 83" d="M43.776 12.352v21.8h-2.725V13.714zm0 0" fill="#fdbf00"/><path data-name="Tracé 84" d="M43.775 12.352v21.8h-1.362V13.033zm0 0" fill="#ff9f00"/><path data-name="Tracé 85" d="M42.413 32.215l-4.087 4.086v10.2H46.5v-10.2zm0 0" fill="#ffd400"/><path data-name="Tracé 86" d="M46.5 36.301v10.2h-4.087V32.215zm0 0" fill="#fdbf00"/><path data-name="Tracé 87" d="M46.5 12.352l-23.25 12.26L0 12.352 23.25 0zm0 0" fill="#6e6e6e"/><path data-name="Tracé 88" d="M46.5 12.352l-23.25 12.26V0zm0 0" fill="#5a5a5a"/><path data-name="Tracé 89" d="M23.25 8.265c-3.049 0-5.449 1.8-5.449 4.087s2.4 4.087 5.449 4.087 5.449-1.8 5.449-4.087-2.398-4.087-5.449-4.087zm0 0" fill="#ffd400"/><path data-name="Tracé 90" d="M28.699 12.352c0 2.289-2.4 4.087-5.449 4.087V8.265c3.052 0 5.449 1.8 5.449 4.087zm0 0" fill="#fdbf00"/></symbol><symbol viewBox="0 0 52 52" id="contact" xmlns="http://www.w3.org/2000/svg"><path d="M26 0C11.664 0 0 11.663 0 26s11.664 26 26 26 26-11.663 26-26S40.336 0 26 0zm0 50C12.767 50 2 39.233 2 26S12.767 2 26 2s24 10.767 24 24-10.767 24-24 24z"/><path d="M38.5 25H27V14a1 1 0 10-2 0v11H13.5a1 1 0 100 2H25v12a1 1 0 102 0V27h11.5a1 1 0 100-2z"/></symbol><symbol viewBox="0 0 46.5 46.5" id="etudes" xmlns="http://www.w3.org/2000/svg"><path data-name="Tracé 81" d="M38.327 16.438v9.536l-15.076 6.812-14.986-6.812v-9.536zm0 0" fill="#5a5a5a"/><path data-name="Tracé 82" d="M38.326 16.438v9.536L23.25 32.786V16.438zm0 0" fill="#444"/><path data-name="Tracé 83" d="M43.776 12.352v21.8h-2.725V13.714zm0 0" fill="#fdbf00"/><path data-name="Tracé 84" d="M43.775 12.352v21.8h-1.362V13.033zm0 0" fill="#ff9f00"/><path data-name="Tracé 85" d="M42.413 32.215l-4.087 4.086v10.2H46.5v-10.2zm0 0" fill="#ffd400"/><path data-name="Tracé 86" d="M46.5 36.301v10.2h-4.087V32.215zm0 0" fill="#fdbf00"/><path data-name="Tracé 87" d="M46.5 12.352l-23.25 12.26L0 12.352 23.25 0zm0 0" fill="#6e6e6e"/><path data-name="Tracé 88" d="M46.5 12.352l-23.25 12.26V0zm0 0" fill="#5a5a5a"/><path data-name="Tracé 89" d="M23.25 8.265c-3.049 0-5.449 1.8-5.449 4.087s2.4 4.087 5.449 4.087 5.449-1.8 5.449-4.087-2.398-4.087-5.449-4.087zm0 0" fill="#ffd400"/><path data-name="Tracé 90" d="M28.699 12.352c0 2.289-2.4 4.087-5.449 4.087V8.265c3.052 0 5.449 1.8 5.449 4.087zm0 0" fill="#fdbf00"/></symbol><symbol viewBox="0 0 41.495 41.495" id="experience" xmlns="http://www.w3.org/2000/svg"><path data-name="Tracé 91" d="M31.158 5.813l-2.84-2.84-1.983 1.29a10.613 10.613 0 00-3.092-1.282L22.755.669h-4.016l-.489 2.312a10.613 10.613 0 00-3.092 1.282l-1.983-1.29-2.84 2.84 1.028 2.452.1 5.12h1.255a8.031 8.031 0 1116.062 0h1.339l-.005-5.12zm0 0" fill="#fcd770"/><path data-name="Tracé 92" d="M10.723 6.738l.641 1.527.013 5.12h1.339a7.983 7.983 0 011.474-4.627 5.326 5.326 0 00-3.467-2.02zm0 0" fill="#ffc729"/><path data-name="Tracé 93" d="M30.762 6.741a5.352 5.352 0 00-3.488 1.974 7.992 7.992 0 011.5 4.668h1.339l-.005-5.12zm0 0" fill="#ffc729"/><path data-name="Tracé 94" d="M38.817 24.763v-3.264a2.678 2.678 0 00-2.028-2.6l-3.326-.831v-1.21a4.011 4.011 0 002.009-3.475v-1.17a4.128 4.128 0 00-3.893-4.183 4.016 4.016 0 00-4.139 4.014v1.339a4.01 4.01 0 002.008 3.474v1.211l-3.326.832a2.677 2.677 0 00-2.028 2.6v3.264zm0 0" fill="#ccd1d9"/><path data-name="Tracé 95" d="M29.447 21.499a4 4 0 00-1.44-3.069l-1.886.472a2.677 2.677 0 00-2.028 2.6v3.264h5.354zm0 0" fill="#aab2bd"/><path data-name="Tracé 96" d="M17.401 24.763v-3.264a2.678 2.678 0 00-2.028-2.6l-3.326-.831v-1.21a4.011 4.011 0 002.009-3.475v-1.17a4.128 4.128 0 00-3.893-4.183 4.016 4.016 0 00-4.139 4.014v1.339a4.01 4.01 0 002.008 3.474v1.211l-3.326.832a2.677 2.677 0 00-2.028 2.6v3.264zm0 0" fill="#ccd1d9"/><path data-name="Tracé 97" d="M17.401 21.499a2.677 2.677 0 00-2.028-2.6l-1.886-.472a4 4 0 00-1.44 3.069v3.264h5.354zm0 0" fill="#aab2bd"/><path data-name="Tracé 98" d="M28.109 24.763v-3.264a2.678 2.678 0 00-2.028-2.6l-3.326-.831v-1.21a4.011 4.011 0 002.009-3.475v-1.17a4.128 4.128 0 00-3.893-4.183 4.016 4.016 0 00-4.139 4.014v1.339a4.01 4.01 0 002.008 3.474v1.211l-3.326.832a2.677 2.677 0 00-2.028 2.6v3.264zm0 0" fill="#ccd1d9"/><g data-name="Groupe 18" fill="#aab2bd"><path data-name="Tracé 99" d="M38.817 21.499a2.677 2.677 0 00-2.028-2.6l-.738-.184-8.943 4.707h-.151l-2.864-.816v2.156h14.724zm0 0"/><path data-name="Tracé 100" d="M28.109 22.898l-1 .526h-.151l-4.025-1.15a4.866 4.866 0 00-1.078-.17l-2.923-.935a8.9 8.9 0 00-4.65-.208l-.867.2a2.55 2.55 0 00-.029.337v3.264H28.11zm0 0"/><path data-name="Tracé 101" d="M14.277 20.961l-2.9.673v-.987l-4.1-2.39-2.575.644a2.678 2.678 0 00-2.025 2.597v3.264h14.724v-3.264a2.663 2.663 0 00-.1-.679 8.616 8.616 0 00-3.022.142zm0 0"/></g><path data-name="Tracé 102" d="M28.323 32.38l-5.655-5.09-1.076-3.866-3.064-.98a7.553 7.553 0 00-3.94-.179l-7.891 1.828-.674 5.354 4.718 2.965 8.584 7.158 1.035.913a1.368 1.368 0 00.9.342h.123a1.368 1.368 0 00.875-2.418 1.768 1.768 0 001.132.41 1.368 1.368 0 00.875-2.418L21.7 34.262l2.676 2.23a1.37 1.37 0 00.876.317h.145a1.368 1.368 0 00.875-2.418l.106.088a1.388 1.388 0 00.889.322h.116a1.389 1.389 0 00.93-2.422zm0 0" fill="#ecc19c"/><path data-name="Tracé 103" d="M28.319 32.381l-5.655-5.09a2.026 2.026 0 00-2.4-.231l-2.491 1.5a1.572 1.572 0 01-2.38-1.354v-.136a1.572 1.572 0 01.869-1.406l3.734-1.867a3.552 3.552 0 012.569-.239l4.206 1.2h.669l12.716-6.688h.669v8.7l-12.047 6.023zm0 0" fill="#f5e0cd"/><path data-name="Tracé 104" d="M20.747 33.463l-.93.968 3.709 3.091a2.709 2.709 0 001.087.539 1.35 1.35 0 00.15-.61 1.368 1.368 0 00-.492-1.051zm0 0" fill="#dfb28b"/><path data-name="Tracé 105" d="M16.731 38.741a1.42 1.42 0 002.423 1l1.176-1.176a1.42 1.42 0 10-2.007-2.008l-1.176 1.176a1.419 1.419 0 00-.416 1zm0 0" fill="#f5e0cd"/><path data-name="Tracé 106" d="M14.724 36.733a1.42 1.42 0 002.423 1l1.176-1.176a1.42 1.42 0 10-2.007-2.008l-1.176 1.176a1.42 1.42 0 00-.416 1.008zm0 0" fill="#f5e0cd"/><path data-name="Tracé 107" d="M12.716 34.725a1.42 1.42 0 002.423 1l1.176-1.176a1.42 1.42 0 10-2.007-2.008l-1.176 1.176a1.419 1.419 0 00-.416 1.008zm0 0" fill="#f5e0cd"/><path data-name="Tracé 108" d="M15.255 33.487a2.763 2.763 0 00.691-1.206 1.4 1.4 0 00-.63-.156 1.419 1.419 0 00-1 .416l-1.176 1.176a1.421 1.421 0 00-.416 1 1.4 1.4 0 00.156.634 2.76 2.76 0 001.206-.691zm0 0" fill="#f0d0b4"/><path data-name="Tracé 109" d="M17.262 35.495a2.763 2.763 0 00.691-1.206 1.4 1.4 0 00-.63-.156 1.419 1.419 0 00-1 .416l-1.176 1.176a1.421 1.421 0 00-.416 1 1.4 1.4 0 00.156.634 2.76 2.76 0 001.206-.691zm0 0" fill="#f0d0b4"/><path data-name="Tracé 110" d="M19.27 37.503a2.764 2.764 0 00.691-1.206 1.4 1.4 0 00-.63-.156 1.419 1.419 0 00-1 .416l-1.176 1.176a1.421 1.421 0 00-.416 1 1.4 1.4 0 00.156.634 2.76 2.76 0 001.206-.692zm0 0" fill="#f0d0b4"/><path data-name="Tracé 111" d="M10.708 32.717a1.42 1.42 0 002.423 1l1.176-1.176a1.42 1.42 0 10-2.007-2.008l-1.176 1.176a1.419 1.419 0 00-.416 1.008zm0 0" fill="#f5e0cd"/><path data-name="Tracé 112" d="M11.153 23.06l-4.46 1.033-.67 5.354 2.8 1.76zm0 0" fill="#dfb28b"/><path data-name="Tracé 113" d="M10.039 22.086l-2.677 9.37h-.669L.669 29.448V16.732h1.339l8.031 4.685zm0 0" fill="#e6e9ed"/><path data-name="Tracé 114" d="M7.406 19.88l-5.398-3.149H.669v12.716l4.016 1.339 2.677-10.708zm0 0" fill="#b4dd7f"/><path data-name="Tracé 115" d="M22.755 31.455l-.93.968 3.709 3.091a2.71 2.71 0 001.087.539 1.351 1.351 0 00.15-.61 1.368 1.368 0 00-.492-1.051zm0 0" fill="#dfb28b"/><path data-name="Tracé 116" d="M41.494 17.4h-1.5l-2.245 1.18a3.327 3.327 0 00-.8-.328l-2.82-.706v-.321a4.7 4.7 0 002.008-3.841v-1.17a4.808 4.808 0 00-4.537-4.85c-.127 0-.252 0-.378.008l.731-1.711-3.545-3.544-2.089 1.36a11.321 11.321 0 00-2.505-1.039L23.3 0h-5.1l-.516 2.438a11.307 11.307 0 00-2.505 1.039l-2.089-1.36-3.544 3.542.719 1.713c-.027 0-.054-.006-.081-.007a4.687 4.687 0 00-4.829 4.682v1.339a4.7 4.7 0 002.008 3.84v.321l-1.839.46-3.335-1.945H0V29.93l6.584 2.194h1.282l.16-.561 2.018 1.211a2.084 2.084 0 002.009 2.019 2.084 2.084 0 002.009 2.007 2.084 2.084 0 002.008 2.01 2.081 2.081 0 003.255 1.653l.593.524a2.038 2.038 0 001.347.508h.124a2.038 2.038 0 002.034-2.01 2.036 2.036 0 002.008-2.008 2.036 2.036 0 002.008-2.01 2.058 2.058 0 002.01-2.054 1.961 1.961 0 00-.01-.2l12.057-6.028zM34.8 12.215v1.17a3.359 3.359 0 01-1.675 2.9l-.335.193v2.118l3.344.835-7.356 3.869v-1.8a3.33 3.33 0 00-.958-2.332l2.3-.574v-2.12l-.334-.193a3.356 3.356 0 01-1.674-2.895v-1.339A3.346 3.346 0 0131.559 8.7a3.46 3.46 0 013.241 3.515zM21.756 22.776l-3.03-.968a8.265 8.265 0 00-4.288-.2l-.384.085v-.2a2.006 2.006 0 011.521-1.948l3.834-.958v-2.12l-.334-.193a3.356 3.356 0 01-1.675-2.889v-1.338A3.346 3.346 0 0120.851 8.7a3.46 3.46 0 013.243 3.513v1.17a3.359 3.359 0 01-1.675 2.9l-.335.193v2.118l3.833.958A2.006 2.006 0 0127.44 21.5v2.508l-.165.087h-.41l-4.115-1.177a4.219 4.219 0 00-.993-.142zM14.2 10.017a7.357 7.357 0 0113.058-.054 4.655 4.655 0 00-.492 2.084v1.339a4.7 4.7 0 002.008 3.84v.321l-2.677.67-2.678-.67v-.321a4.7 4.7 0 002.008-3.841v-1.17a4.808 4.808 0 00-4.541-4.852 4.686 4.686 0 00-4.829 4.683v1.339a4.7 4.7 0 002.008 3.84v.321l-2.677.67-2.678-.67v-.321a4.7 4.7 0 002.008-3.841v-1.17a4.933 4.933 0 00-.519-2.2zm-3.074-4.048l2.138-2.138 1.882 1.225.36-.221a9.987 9.987 0 012.9-1.2l.412-.1.466-2.2h2.931l.464 2.2.412.1a10 10 0 012.9 1.2l.36.221 1.878-1.226 2.136 2.136-.759 1.777a4.678 4.678 0 00-1.413.939c-.027.027-.051.056-.078.083a8.692 8.692 0 00-14.761.04 4.721 4.721 0 00-1.477-1.045zM8.7 18.593v-2.12l-.334-.193a3.356 3.356 0 01-1.674-2.895v-1.338a3.346 3.346 0 013.45-3.347 3.46 3.46 0 013.243 3.513v1.17a3.359 3.359 0 01-1.675 2.9l-.335.193v2.118l2.3.574a3.33 3.33 0 00-.958 2.332v.5l-2.088.464.054-.19.025-1.237-3.53-2.059zM1.338 17.4h.488l4.813 2.807-2.428 9.716-2.872-.958zM6.8 30.786l-1.317-.439 2.359-9.437 1.526.89v.191l-2.511 8.795zm4.576 1.927a.755.755 0 01.22-.531l1.176-1.176a.751.751 0 011.061 1.061l-1.176 1.176a.751.751 0 01-1.281-.531zm2.008 2.008a.755.755 0 01.22-.531l1.176-1.176a.751.751 0 011.061 1.061l-1.176 1.176a.751.751 0 01-1.281-.531zm2.008 2.008a.755.755 0 01.22-.531l1.176-1.176a.751.751 0 011.061 1.061l-1.176 1.176a.751.751 0 01-1.281-.531zm2.758 2.758a.751.751 0 01-.531-1.281l1.181-1.177a.751.751 0 011.061 1.061l-1.176 1.176a.755.755 0 01-.534.221zm3.237.669h-.124a.694.694 0 01-.461-.175l-.5-.441.5-.5a2.081 2.081 0 00.422-.622l.608.507a.7.7 0 01-.447 1.234zm6-6.023h-.116a.718.718 0 01-.46-.167l-3.629-3.024-.857 1.029 3.524 2.937a.7.7 0 01-.449 1.232h-.146a.7.7 0 01-.446-.162l-3.635-3.029-.857 1.029 3.524 2.937a.7.7 0 01-.447 1.233 1.105 1.105 0 01-.7-.255L21.2 36.648a2.082 2.082 0 00-1.8-1.17 2.084 2.084 0 00-2.008-2.008 2.084 2.084 0 00-2.008-2.008 2.084 2.084 0 00-3.558-1.4l-1.176 1.176a2.062 2.062 0 00-.188.229l-2.055-1.236 1.8-6.308 4.518-1a6.9 6.9 0 013.591.162l.986.315-3.342 1.671a2.231 2.231 0 00-1.238 2.005v.132a2.241 2.241 0 003.4 1.922l2.492-1.494a1.382 1.382 0 011.6.155l5.655 5.089a.72.72 0 01-.481 1.256zm12.766-7.776L28.881 32a2.026 2.026 0 00-.115-.112l-5.654-5.089a2.693 2.693 0 00-3.19-.308l-2.493 1.5a.9.9 0 01-1.367-.775v-.132a.9.9 0 01.5-.808l3.733-1.876a2.909 2.909 0 012.086-.193l4.206 1.2 1.019.025 12.551-6.606zm0 0"/></symbol><symbol viewBox="0 0 46.954 46.954" id="mail" xmlns="http://www.w3.org/2000/svg"><g data-name="Groupe 24"><path data-name="Tracé 145" d="M46.173 17.996v26.609a1.57 1.57 0 01-1.565 1.565H2.345A1.57 1.57 0 01.78 44.605V17.996l.329-.25.2.25h44.338l.2-.25z" fill="#c52828"/><path data-name="Tracé 146" d="M43.823 17.996v26.609a1.57 1.57 0 01-1.565 1.565H2.345a1 1 0 01-.157-.008.461.461 0 01-.11-.016 1.565 1.565 0 01-.994-.618 1.522 1.522 0 01-.305-.923V17.996h42.52l.2-.25z" fill="#f44335"/><path data-name="Tracé 147" d="M45.843 17.746l-.2.25-21.384 16.435h-1.566L1.305 17.996l-.2-.25 7.5-5.83 10.312-8.007 3.608-2.8a1.528 1.528 0 011.894 0l3.608 2.8 10.319 8.006z" fill="#ff5722"/><path data-name="Tracé 148" d="M38.345 5.472v18.135l-2.348 1.808-11.739 9.016h-1.565L8.606 23.607V5.472a1.57 1.57 0 011.565-1.565H36.78a1.57 1.57 0 011.565 1.565z" fill="#cfd8dc"/><path data-name="Tracé 149" d="M35.997 5.472v19.943l-11.739 9.016h-1.565L8.606 23.607V5.472a1.57 1.57 0 011.565-1.565h24.261a1.57 1.57 0 011.565 1.565z" fill="#f5f5f5"/><path data-name="Tracé 150" d="M45.867 45.529a1.549 1.549 0 01-1.26.642h-2.348a1.57 1.57 0 001.565-1.565v-.665z" fill="#d84315"/><path data-name="Tracé 151" d="M43.824 43.94v.665a1.57 1.57 0 01-1.565 1.565H2.35a1.006 1.006 0 01-.157-.008.46.46 0 01-.11-.016 1.565 1.565 0 01-.994-.618l17.93-13.923 3.514-2.731a1.528 1.528 0 011.894 0l3.514 2.731z" fill="#ff5722"/></g><g data-name="Groupe 25"><path data-name="Tracé 152" d="M46.913 17.795a.783.783 0 00-.045-.135.7.7 0 00-.078-.12.738.738 0 00-.1-.121c-.013-.011-.018-.026-.031-.037l-7.526-5.845V5.475a2.348 2.348 0 00-2.348-2.348h-8.486l-3.4-2.632a2.321 2.321 0 00-2.85 0l-3.4 2.637h-8.478a2.348 2.348 0 00-2.347 2.343v6.058L.299 17.378c-.013.011-.019.026-.031.037a.734.734 0 00-.1.121.7.7 0 00-.078.12.772.772 0 00-.045.135.742.742 0 00-.032.157c-.004.016-.014.03-.014.047v26.61a2.322 2.322 0 00.46 1.382c0 .007.006.016.011.022s.017.013.025.022a2.336 2.336 0 001.85.923h42.262a2.337 2.337 0 001.856-.927c.006-.008.016-.01.021-.018s.006-.015.011-.022a2.321 2.321 0 00.459-1.381V17.995c0-.016-.009-.031-.009-.047a.74.74 0 00-.032-.153zM23.006 1.725a.75.75 0 01.934 0l1.805 1.4h-4.539zm-14.4 18.619a.783.783 0 00.783-.783V5.475a.783.783 0 01.783-.783H36.78a.783.783 0 01.783.783v14.087a.783.783 0 101.565 0v-6.048l5.506 4.281-13.052 10.133a.783.783 0 10.959 1.236l12.848-9.976v24.98l-20.49-15.911a2.322 2.322 0 00-2.854 0L1.563 44.168v-24.98l12.825 9.959a.783.783 0 00.959-1.237L2.318 17.795l5.506-4.279v6.047a.783.783 0 00.782.781zm35.8 25.044H2.543l20.463-15.893a.751.751 0 01.934 0z"/><path data-name="Tracé 153" d="M23.476 25.041a.783.783 0 100-1.565 7.826 7.826 0 117.826-7.826v3.13a1.566 1.566 0 01-3.131 0v-3.131a.783.783 0 10-1.565 0 3.13 3.13 0 11-3.13-3.13.783.783 0 000-1.565 4.7 4.7 0 103.164 8.156 3.122 3.122 0 006.227-.33v-3.131a9.391 9.391 0 10-9.391 9.391z"/></g></symbol><symbol viewBox="0 -2.6 48.84 48.84" id="map" xmlns="http://www.w3.org/2000/svg"><path data-name="Tracé 128" d="M12.568 37.597l11.851 5.321V21.707l-10.211-5.321z" fill="#44c868"/><path data-name="Tracé 129" d="M13.447 26.243l10.972 16.676-11.851-5.321z" fill="#7ee5f2"/><path data-name="Tracé 130" d="M12.568 37.597L.717 42.919l3.837-21.157 9.657-5.376z" fill="#4ce166"/><path data-name="Tracé 131" d="M2.712 31.918l10.736-5.675-.879 11.355L.717 42.919z" fill="#a8eefc"/><path data-name="Tracé 132" d="M36.271 37.597l11.851 5.321-3.837-21.157-9.657-5.376z" fill="#44c868"/><path data-name="Tracé 133" d="M35.115 22.667l11.826 13.737-2.653-14.642-1.464-.815z" fill="#7ee5f2"/><path data-name="Tracé 134" d="M36.271 37.597L24.42 42.918V21.707l10.209-5.321z" fill="#4ce166"/><path data-name="Tracé 135" d="M2.712 31.918l10.736-5.675.312-4.033-10.269 5.412z" fill="#ffdb56"/><g data-name="Groupe 23" fill="#ffbb24"><path data-name="Tracé 136" d="M24.423 23.735L13.76 22.207l-.312 4.033L24.42 42.916v-6.064l-6.552-10.315 6.55.784z"/><path data-name="Tracé 137" d="M35.115 22.668l7.707-1.72-4.625-2.575-3.354.784z"/></g><path data-name="Tracé 138" d="M35.505 27.697l-.416-5.37-.246-3.17-10.42 4.578v3.586l6.807-2.962z" fill="#ffdb56"/><path data-name="Tracé 139" d="M35.505 27.696l12.618 15.222-1.181-6.514-11.826-13.737z" fill="#ffbb24"/><path data-name="Tracé 140" d="M24.466.717a9.311 9.311 0 00-9.311 9.311c0 7.83 9.311 15.035 9.311 15.035s9.311-7.2 9.311-15.035A9.311 9.311 0 0024.466.717zm0 13.024a3.714 3.714 0 113.71-3.711 3.714 3.714 0 01-3.71 3.711z" fill="#ff4a4a"/><path data-name="Tracé 141" d="M24.465.717a9.392 9.392 0 00-1.29.089 9.312 9.312 0 018.02 9.221c0 6-5.464 11.63-8.02 13.937.781.7 1.29 1.1 1.29 1.1s9.311-7.2 9.311-15.035A9.311 9.311 0 0024.465.717z" fill="#e7343f"/><path data-name="Tracé 142" d="M24.42 36.855l4.084 4.23-4.084 1.834z" fill="#ffdb56"/><path data-name="Tracé 143" d="M48.688 43.358l.011-.013a.715.715 0 00.057-.091c0-.009.008-.018.013-.027a.738.738 0 00.03-.071c0-.012.008-.025.011-.037s.012-.045.016-.068 0-.026.006-.04a.728.728 0 00.005-.074v-.035a.709.709 0 00-.011-.11l-2.859-15.778a.717.717 0 10-1.411.256l1.21 6.671-9.327-10.834 6.273-1.4.929.517.4 2.224a.717.717 0 101.411-.256l-.464-2.558a.717.717 0 00-.357-.5l-9.658-5.376a.711.711 0 00-.085-.04l-.028-.009a.617.617 0 00-.061-.019l-.035-.007-.056-.009h-.131l-.053.005-.039.007-.052.012-.038.012-.044.018-.038.017-.016.007-1.638.854a13.939 13.939 0 001.834-6.578 10.027 10.027 0 10-20.055 0 13.983 13.983 0 001.869 6.643l-1.765-.92-.017-.007-.036-.016-.05-.019-.038-.011-.052-.012-.039-.007-.053-.005h-.131l-.053.009-.037.007c-.02 0-.039.012-.058.018l-.03.01a.723.723 0 00-.084.04l-9.659 5.378a.716.716 0 00-.357.5l-2.72 15a.717.717 0 001.411.256l.816-4.5 9.278-4.9-.746 9.634-10.222 4.582.36-1.98a.717.717 0 10-1.411-.26l-.6 3.324a.717.717 0 001 .782l11.558-5.19 11.553 5.187.02.008.032.012.032.011.021.006.027.007.045.009H24.338a.706.706 0 00.072 0h.014a.714.714 0 00.087-.006h.027a.68.68 0 00.067-.015h.024a.712.712 0 00.082-.031l11.558-5.189 11.558 5.19.034.013.034.013.046.013.028.008.056.009h.02a.708.708 0 00.076 0 .725.725 0 00.1-.009h.024a.7.7 0 00.1-.026h.006a.667.667 0 00.066-.026l.018-.01c.018-.009.035-.019.053-.03s.035-.021.051-.033l.018-.011c.013-.01.024-.021.035-.032l.028-.025a.7.7 0 00.068-.069zm-20.018-3.13l-3.533-3.659v-8.777l5.988-2.606 3.69 2.881.7 9.083zm-3.533 1.586v-3.186l2.143 2.22zm-2.812-17.655c.6.554 1.08.965 1.378 1.21v1.144l-5.745-.685a.717.717 0 00-.69 1.1L23.7 37.063v3.465l-9.518-14.474.117-1.506.118-1.52zm5.414-1.1l6.467-2.841.458 5.911-2.994-2.337a.717.717 0 00-.727-.092l-5.803 2.528v-.786a33.69 33.69 0 002.599-2.381zm8.267 1.838L36 24.792l10.271 11.936.659 3.632L36.2 27.414zm-.561-7.237l.782.435-.735.172zm-16.158 9.768l4.416.529v6.431zM14 28.387l8.468 12.87-9.146-4.107zm22.393 1.505l9.207 11.11-8.647-3.884zm4.435-9.235l-5.063 1.13-.161-2.073 2.485-.581 2.738 1.524zM34 17.528l.092 1.182-4.04 1.775q.6-.746 1.122-1.484zm-9.532-16.09a8.6 8.6 0 018.592 8.59c0 6.43-6.784 12.582-8.594 14.109-1.81-1.527-8.594-7.678-8.594-14.109a8.6 8.6 0 018.594-8.594zm-5.2 19.508c.459.548.917 1.058 1.357 1.525l-6.091-.872.315-4.071 2.971 1.549q.654.923 1.441 1.865zm-5.867-3.28l-.206 2.66-.111 1.438-8.625 4.537.741-4.073zm-9.72 12.929l.442-2.439.011-.063 8.811-4.644-.182 2.344z"/><path data-name="Tracé 144" d="M28.893 10.027a4.435 4.435 0 00-4.43-4.43.717.717 0 000 1.434 3 3 0 11-2.138.9.717.717 0 10-1.023-1 4.43 4.43 0 107.591 3.1z"/></symbol><symbol viewBox="0 0 512 512" id="moins" xmlns="http://www.w3.org/2000/svg"><path d="M256 512C114.836 512 0 397.164 0 256S114.836 0 256 0s256 114.836 256 256-114.836 256-256 256zm0-480C132.48 32 32 132.48 32 256s100.48 224 224 224 224-100.48 224-224S379.52 32 256 32zm0 0"/><path d="M368 272H144c-8.832 0-16-7.168-16-16s7.168-16 16-16h224c8.832 0 16 7.168 16 16s-7.168 16-16 16zm0 0"/></symbol><symbol viewBox="-6.9 0 54.67 54.67" id="phone-call" xmlns="http://www.w3.org/2000/svg"><path data-name="Rectangle 15" fill="#c8d2d6" d="M17.299 44.298h22.62v10.368h-22.62z"/><path data-name="Tracé 117" d="M32.379 54.666h-15.08V44.298h8.884a6.2 6.2 0 016.2 6.2z" fill="#e7eced"/><circle data-name="Ellipse 3" cx="2.356" cy="2.356" r="2.356" transform="translate(23.897 47.126)" fill="#7383bf"/><path data-name="Tracé 118" d="M24.748 10.087a3.3 3.3 0 10-4.341-4.341z" fill="#fbce9d"/><path data-name="Tracé 119" d="M29.461 14.8a3.3 3.3 0 10-4.341-4.341z" fill="#fbce9d"/><path data-name="Tracé 120" d="M34.174 19.512a3.3 3.3 0 10-4.341-4.341z" fill="#fbce9d"/><path data-name="Tracé 121" d="M38.886 24.225a3.3 3.3 0 10-4.341-4.341z" fill="#fbce9d"/><path data-name="Tracé 122" d="M19.654 31.106H10.23a3.309 3.309 0 01-3.3-3.3 3.309 3.309 0 013.3-3.3h9.424a3.309 3.309 0 013.3 3.3 3.309 3.309 0 01-3.3 3.3z" fill="#fbce9d"/><g data-name="Groupe 19"><path data-name="Tracé 123" d="M39.105 29.749L28.624 40.23a2.162 2.162 0 01-3.058 0l-9.125-9.126h-6.21c-.545.267-2.031-.7-1.461-.206l10.191 10.15c.07.07.151.12.224.183v3.068h18.85v-4.251a7.045 7.045 0 001.07-10.3z" fill="#f7b563"/></g><path data-name="Tracé 124" d="M17.386 2.723L2.723 17.386l7.156 7.156a3.365 3.365 0 01.352-.036h9.425a3.3 3.3 0 010 6.6H16.44l5.99 5.99 14.662-14.662z" fill="#424a60"/><g data-name="Groupe 20" fill="#e7eced"><path data-name="Tracé 125" d="M17.386 2.723l-2.09-2.09a2.162 2.162 0 00-3.058 0L.633 12.238a2.163 2.163 0 000 3.058l2.09 2.09z"/><path data-name="Tracé 126" d="M40.229 25.567l-3.137-3.135L22.43 37.093l3.136 3.139a2.162 2.162 0 003.058 0l11.6-11.6a2.161 2.161 0 00.005-3.065z"/></g><circle data-name="Ellipse 4" cx="1.885" cy="1.885" r="1.885" transform="translate(30.023 29.689)" fill="#fff"/><path data-name="Tracé 127" d="M7.874 10.368a.943.943 0 01-.666-1.609l1.885-1.885a.943.943 0 011.333 1.333l-1.885 1.885a.94.94 0 01-.667.276z" fill="#424a60"/></symbol><symbol viewBox="0 0 52 52" id="plus" xmlns="http://www.w3.org/2000/svg"><path d="M26 0C11.664 0 0 11.663 0 26s11.664 26 26 26 26-11.663 26-26S40.336 0 26 0zm0 50C12.767 50 2 39.233 2 26S12.767 2 26 2s24 10.767 24 24-10.767 24-24 24z"/><path d="M38.5 25H27V14a1 1 0 10-2 0v11H13.5a1 1 0 100 2H25v12a1 1 0 102 0V27h11.5a1 1 0 100-2z"/></symbol><symbol viewBox="0 -0.73 42.03 42.03" id="projets" xmlns="http://www.w3.org/2000/svg"><path data-name="Tracé 51" d="M36.233 0H2.175A2.175 2.175 0 000 2.173v25.364h42.031V2.173a2.175 2.175 0 00-2.175-2.175h-3.623z" fill="#e7eced"/><path data-name="Rectangle 12" fill="#28384c" d="M2.899 2.899h36.233v23.189H2.899z"/><path data-name="Tracé 52" d="M9.421 5.797v13.769h17.252l3.039-3.045V5.797z" fill="#e7eced"/><path data-name="Tracé 53" d="M39.856 31.885H2.175A2.175 2.175 0 010 29.711v-3.623h42.031v3.623a2.175 2.175 0 01-2.175 2.174z" fill="#afb6bb"/><path data-name="Tracé 54" d="M23.19 29.711h-4.348a.725.725 0 110-1.449h4.348a.725.725 0 010 1.449z" fill="#fff"/><path data-name="Tracé 55" d="M30.436 40.582H11.594a1.449 1.449 0 01-1.449-1.449 1.449 1.449 0 011.449-1.449h18.841a1.449 1.449 0 011.449 1.449 1.449 1.449 0 01-1.448 1.449z" fill="#afb6bb"/><path data-name="Tracé 56" d="M24.639 31.885h-7.247c0 3.2-1.144 5.8-4.348 5.8h15.943c-3.205-.003-4.348-2.596-4.348-5.8z" fill="#6c797a"/><path data-name="Tracé 57" d="M33.391 21.14l-2.194-2.194a.1.1 0 010-.136l1.418-1.418-7.247-2.174 2.174 7.247 1.381-1.381a.222.222 0 01.313 0l2.105 2.106z" fill="#7383bf"/><path data-name="Rectangle 13" fill="#556080" d="M9.421 5.797h20.291V9.42H9.421z"/><path data-name="Rectangle 14" fill="#dd352e" d="M12.319 13.769h5.797v2.899h-5.797z"/></symbol></svg>